<mxfile host="app.diagrams.net" modified="2023-09-09T04:59:56.574Z" agent="Mozilla/5.0 (Windows NT 10.0; Win64; x64) AppleWebKit/537.36 (KHTML, like Gecko) Chrome/116.0.0.0 Safari/537.36" etag="iafcgD6UBn-0V4eib__y" version="21.7.4" type="github">
  <diagram name="페이지-1" id="j7-m7W1ATwXPMDMl0uuA">
    <mxGraphModel dx="1434" dy="790" grid="1" gridSize="10" guides="1" tooltips="1" connect="1" arrows="1" fold="1" page="1" pageScale="1" pageWidth="827" pageHeight="1169" math="0" shadow="0">
      <root>
        <mxCell id="0" />
        <mxCell id="1" parent="0" />
        <mxCell id="f-Wsz4HT7Kf-OhiIunig-1" value="객체지향형&lt;br&gt;프로그래밍" style="rounded=0;whiteSpace=wrap;html=1;fillColor=#1ba1e2;strokeColor=none;fontColor=#ffffff;" parent="1" vertex="1">
          <mxGeometry x="40" y="50" width="120" height="60" as="geometry" />
        </mxCell>
        <mxCell id="f-Wsz4HT7Kf-OhiIunig-2" value="철학적인 의미의 객체 : 어떤 사물이나 사념...&lt;br&gt;프로그램에서의 객체 : 어떤 사물이나 사념을 만들기 위해 확보한 특정 메모리 공간&lt;br&gt;초기화 : 확보한 메모리 공간에 값을 처음 써 넣는 과정&lt;br&gt;&lt;div style=&quot;&quot;&gt;&lt;span style=&quot;background-color: initial;&quot;&gt;인스턴스 : 초기화가 된 객체&lt;/span&gt;&lt;/div&gt;" style="text;html=1;strokeColor=none;fillColor=none;align=left;verticalAlign=middle;whiteSpace=wrap;rounded=0;" parent="1" vertex="1">
          <mxGeometry x="170" y="55" width="510" height="50" as="geometry" />
        </mxCell>
        <mxCell id="wQWrI5u1uAB9rUZWqKmI-3" value="2023.09.09 Unity_ 신채연" style="text;html=1;strokeColor=none;fillColor=none;align=center;verticalAlign=middle;whiteSpace=wrap;rounded=0;" vertex="1" parent="1">
          <mxGeometry x="10" y="10" width="170" height="30" as="geometry" />
        </mxCell>
      </root>
    </mxGraphModel>
  </diagram>
</mxfile>
